<?xml version="1.0" encoding="UTF-8" standalone="no"?><!DOCTYPE svg PUBLIC "-//W3C//DTD SVG 1.1//EN" "http://www.w3.org/Graphics/SVG/1.1/DTD/svg11.dtd">
<svg width="100%" height="100%" viewBox="0 0 300 300" version="1.1" xmlns="http://www.w3.org/2000/svg" xml:space="preserve" style="fill-rule:evenodd;clip-rule:evenodd;stroke-linejoin:round;stroke-miterlimit:2;"><g><path d="M100.088,55.04l60.99,-55.04l-0,32.028c61.723,4.046 110.605,55.459 110.605,118.198c0,54.36 -36.696,100.216 -86.646,114.128l21.49,-19.394l-29.639,-26.747c28.115,-9.795 48.312,-36.551 48.312,-67.987c0,-37.07 -28.087,-67.632 -64.123,-71.548l0,31.401l-60.99,-55.04Z" style="fill:url(#_Radial1);"/><path d="M128.43,80.616c-30.85,8.119 -53.63,36.225 -53.63,69.61c0,39.31 31.584,71.302 70.738,71.962l0,-32.268l60.99,55.04l-60.99,55.04l0,-31.325c-64.809,-0.663 -117.22,-53.484 -117.22,-118.448c0,-57.337 40.826,-105.214 94.969,-116.122l-23.199,20.935l28.342,25.577Z" style="fill:url(#_Radial2);"/></g><defs><radialGradient id="_Radial1" cx="0" cy="0" r="1" gradientUnits="userSpaceOnUse" gradientTransform="matrix(0,-253.459022,-170.81133,-0,186.276714,267.395725)"><stop offset="0" style="stop-color:#75277f;stop-opacity:1"/><stop offset="1" style="stop-color:#c53bd7;stop-opacity:1"/></radialGradient><radialGradient id="_Radial2" cx="0" cy="0" r="1" gradientUnits="userSpaceOnUse" gradientTransform="matrix(-0,253.459022,170.81133,0,113.723286,33.057194)"><stop offset="0" style="stop-color:#0578bf;stop-opacity:1"/><stop offset="1" style="stop-color:#009dff;stop-opacity:1"/></radialGradient></defs></svg>