<?xml version="1.0" encoding="UTF-8" standalone="no"?><!DOCTYPE svg PUBLIC "-//W3C//DTD SVG 1.1//EN" "http://www.w3.org/Graphics/SVG/1.1/DTD/svg11.dtd">
<svg width="100%" height="100%" viewBox="0 0 780 214" version="1.1" xmlns="http://www.w3.org/2000/svg" xml:space="preserve" style="fill-rule:evenodd;clip-rule:evenodd;stroke-linejoin:round;stroke-miterlimit:2;"><rect id="logo-primary" x="0" y="0" width="779.528" height="213.089" style="fill:none;"/><clipPath id="_clip1"><rect x="0" y="0" width="779.528" height="213.089"/></clipPath><g clip-path="url(#_clip1)"><g><g><path d="M50.274,41.328l41.886,-37.8l-0,21.996c42.39,2.779 75.96,38.087 75.96,81.175c0,37.333 -25.202,68.825 -59.506,78.38l14.759,-13.319l-20.355,-18.369c19.308,-6.727 33.179,-25.102 33.179,-46.691c0,-25.459 -19.289,-46.448 -44.038,-49.137l0,21.565l-41.886,-37.8Z" style="fill:url(#_Radial2);"/><path d="M69.739,58.894c-21.187,5.576 -36.831,24.878 -36.831,47.806c0,26.997 21.691,48.968 48.58,49.421l0,-22.16l41.886,37.8l-41.886,37.8l0,-21.513c-44.509,-0.456 -80.503,-36.731 -80.503,-81.347c0,-39.377 28.038,-72.258 65.222,-79.749l-15.932,14.378l19.464,17.565Z" style="fill:url(#_Radial3);"/></g><g><path d="M242.861,155.059c-6.333,0 -12.194,-0.833 -17.583,-2.5c-5.389,-1.667 -10.278,-4.194 -14.667,-7.583c-4.389,-3.389 -8.306,-7.583 -11.75,-12.583l12.333,-14.167c5.444,7.778 10.667,13.167 15.667,16.167c5,3 10.944,4.5 17.833,4.5c4.222,0 8.056,-0.667 11.5,-2c3.444,-1.333 6.167,-3.167 8.167,-5.5c2,-2.333 3,-5 3,-8c0,-2 -0.333,-3.889 -1,-5.667c-0.667,-1.778 -1.694,-3.389 -3.083,-4.833c-1.389,-1.444 -3.167,-2.778 -5.333,-4c-2.167,-1.222 -4.694,-2.306 -7.583,-3.25c-2.889,-0.944 -6.222,-1.75 -10,-2.417c-6,-1.222 -11.222,-2.833 -15.667,-4.833c-4.444,-2 -8.167,-4.5 -11.167,-7.5c-3,-3 -5.222,-6.417 -6.667,-10.25c-1.444,-3.833 -2.167,-8.139 -2.167,-12.917c0,-4.667 1.028,-9 3.083,-13c2.056,-4 4.889,-7.472 8.5,-10.417c3.611,-2.944 7.861,-5.222 12.75,-6.833c4.889,-1.611 10.167,-2.417 15.833,-2.417c6,0 11.5,0.778 16.5,2.333c5,1.556 9.444,3.861 13.333,6.917c3.889,3.056 7.111,6.806 9.667,11.25l-12.667,12.5c-2.222,-3.667 -4.722,-6.75 -7.5,-9.25c-2.778,-2.5 -5.833,-4.389 -9.167,-5.667c-3.333,-1.278 -6.889,-1.917 -10.667,-1.917c-4.333,0 -8.111,0.667 -11.333,2c-3.222,1.333 -5.75,3.194 -7.583,5.583c-1.833,2.389 -2.75,5.194 -2.75,8.417c0,2.333 0.444,4.472 1.333,6.417c0.889,1.944 2.25,3.667 4.083,5.167c1.833,1.5 4.306,2.833 7.417,4c3.111,1.167 6.833,2.194 11.167,3.083c6.111,1.333 11.556,3.028 16.333,5.083c4.778,2.056 8.833,4.472 12.167,7.25c3.333,2.778 5.861,5.889 7.583,9.333c1.722,3.444 2.583,7.167 2.583,11.167c0,7.444 -1.722,13.889 -5.167,19.333c-3.444,5.444 -8.333,9.639 -14.667,12.583c-6.333,2.944 -13.889,4.417 -22.667,4.417Z" style="fill:#fff;fill-rule:nonzero;"/><path d="M335.953,157.613l-40.592,-91.72l20,0l27.333,64.333c0.556,1.111 1.222,2.806 2,5.083c0.085,0.249 0.169,0.498 0.251,0.746c0.833,-2.332 1.638,-4.664 2.415,-6.996l22.833,-63.167l20.333,0l-36,87.5l-14.833,38.333l-18.5,0l14.759,-34.113Z" style="fill:#fff;"/><path d="M420.528,79.432c0.981,-1.484 2.147,-2.914 3.5,-4.29c3.222,-3.278 7.056,-5.944 11.5,-8c4.444,-2.056 9,-3.083 13.667,-3.083c6.667,0 12.222,1.306 16.667,3.917c4.444,2.611 7.778,6.583 10,11.917c2.222,5.333 3.333,12.056 3.333,20.167l0,53.333l-17.167,0l0,-52.167c0,-5 -0.667,-9.139 -2,-12.417c-1.333,-3.278 -3.389,-5.667 -6.167,-7.167c-2.778,-1.5 -6.222,-2.139 -10.333,-1.917c-3.333,0 -6.389,0.528 -9.167,1.583c-2.778,1.056 -5.194,2.528 -7.25,4.417c-2.056,1.889 -3.667,4.083 -4.833,6.583c-1.167,2.5 -1.75,5.194 -1.75,8.083l0,53l-17.167,0l0,-87.5l17.167,0l0,13.54Z" style="fill:#fff;"/><path d="M539.694,155.059c-8.111,0 -15.361,-2 -21.75,-6c-6.389,-4 -11.444,-9.444 -15.167,-16.333c-3.722,-6.889 -5.583,-14.611 -5.583,-23.167c0,-8.556 1.861,-16.278 5.583,-23.167c3.722,-6.889 8.778,-12.333 15.167,-16.333c6.389,-4 13.639,-6 21.75,-6c7.778,0 14.861,1.583 21.25,4.75c6.389,3.167 11.25,7.472 14.583,12.917l-9.5,11.667c-1.778,-2.556 -4.056,-4.889 -6.833,-7c-2.778,-2.111 -5.722,-3.778 -8.833,-5c-3.111,-1.222 -6.111,-1.833 -9,-1.833c-5.333,0 -10.083,1.306 -14.25,3.917c-4.167,2.611 -7.472,6.194 -9.917,10.75c-2.444,4.556 -3.667,9.667 -3.667,15.333c0,5.667 1.278,10.75 3.833,15.25c2.556,4.5 5.944,8.083 10.167,10.75c4.222,2.667 8.889,4 14,4c3,0 5.917,-0.5 8.75,-1.5c2.833,-1 5.583,-2.5 8.25,-4.5c2.667,-2 5.167,-4.444 7.5,-7.333l9.5,11.667c-3.556,5 -8.639,9.111 -15.25,12.333c-6.611,3.222 -13.472,4.833 -20.583,4.833Z" style="fill:#fff;fill-rule:nonzero;"/><path d="M597.028,114.226c-2.254,0 -4.416,-0.896 -6.01,-2.49c-1.594,-1.594 -2.49,-3.756 -2.49,-6.01c0,-0 0,-0 0,-0c0,-2.254 0.896,-4.416 2.49,-6.01c1.594,-1.594 3.756,-2.49 6.01,-2.49c8.737,-0 22.263,-0 31,-0c2.254,-0 4.416,0.896 6.01,2.49c1.594,1.594 2.49,3.756 2.49,6.01c-0,0 -0,0 -0,0c-0,2.254 -0.896,4.416 -2.49,6.01c-1.594,1.594 -3.756,2.49 -6.01,2.49l-31,0Z" style="fill:#fff;fill-rule:nonzero;"/><path d="M660.194,153.392l0,-87.5l17.167,0l0,87.5l-17.167,0Zm8.333,-106.833c-3.667,0 -6.5,-0.944 -8.5,-2.833c-2,-1.889 -3,-4.556 -3,-8c0,-3.222 1.028,-5.833 3.083,-7.833c2.056,-2 4.861,-3 8.417,-3c3.667,0 6.5,0.944 8.5,2.833c2,1.889 3,4.556 3,8c0,3.222 -1.028,5.833 -3.083,7.833c-2.056,2 -4.861,3 -8.417,3Z" style="fill:#fff;fill-rule:nonzero;"/><path d="M720.861,79.432c0.981,-1.484 2.147,-2.914 3.5,-4.29c3.222,-3.278 7.056,-5.944 11.5,-8c4.444,-2.056 9,-3.083 13.667,-3.083c6.667,0 12.222,1.306 16.667,3.917c4.444,2.611 7.778,6.583 10,11.917c2.222,5.333 3.333,12.056 3.333,20.167l0,53.333l-17.167,0l0,-52.167c0,-5 -0.667,-9.139 -2,-12.417c-1.333,-3.278 -3.389,-5.667 -6.167,-7.167c-2.778,-1.5 -6.222,-2.139 -10.333,-1.917c-3.333,0 -6.389,0.528 -9.167,1.583c-2.778,1.056 -5.194,2.528 -7.25,4.417c-2.056,1.889 -3.667,4.083 -4.833,6.583c-1.167,2.5 -1.75,5.194 -1.75,8.083l0,53l-17.167,0l0,-87.5l17.167,0l0,13.54Z" style="fill:#fff;"/></g></g></g><defs><radialGradient id="_Radial2" cx="0" cy="0" r="1" gradientUnits="userSpaceOnUse" gradientTransform="matrix(0,-174.068253,-117.308233,-0,109.466483,187.168497)"><stop offset="0" style="stop-color:#75277f;stop-opacity:1"/><stop offset="1" style="stop-color:#c53bd7;stop-opacity:1"/></radialGradient><radialGradient id="_Radial3" cx="0" cy="0" r="1" gradientUnits="userSpaceOnUse" gradientTransform="matrix(-0,174.068253,117.308233,0,59.638908,26.231638)"><stop offset="0" style="stop-color:#0578bf;stop-opacity:1"/><stop offset="1" style="stop-color:#009dff;stop-opacity:1"/></radialGradient></defs></svg>