<svg xmlns="http://www.w3.org/2000/svg" viewBox="0 0 24 24"><path d="M6 2c-1.11 0-2 .89-2 2v16a2 2 0 0 0 2 2h12a2 2 0 0 0 2-2V8l-6-6zm7 1.5L18.5 9H13zm-6.248 8.053h10.65c.039 0 .07.028.077.064l.81 5.04a.07.07 0 0 1 .018.042v3.197a.076.076 0 0 1-.077.077H5.94a.076.076 0 0 1-.077-.077V16.7a.1.1 0 0 1 .008-.037l.81-5.045a.08.08 0 0 1 .071-.064m5.496 1.047c-1.831 0-3.314.748-3.314 1.67 0 .92 1.483 1.668 3.314 1.668s3.315-.747 3.315-1.668c0-.922-1.485-1.67-3.315-1.67m-.014.275c1.49 0 2.7.606 2.7 1.354 0 .747-1.21 1.353-2.7 1.353s-2.699-.606-2.699-1.353c0-.748 1.209-1.354 2.7-1.354m-5.808 4.299v2.248h11.316v-2.248zm.97.449h.981c.042 0 .078.033.078.074v.951a.076.076 0 0 1-.078.075h-.973a.076.076 0 0 1-.078-.075v-.95c0-.04.032-.071.07-.075m5.477 0h.978c.043 0 .079.033.079.074v.951c0 .042-.036.075-.078.075h-.971a.076.076 0 0 1-.078-.075v-.95c0-.04.031-.071.07-.075m1.705 0h.983c.042 0 .076.033.076.074v.951a.075.075 0 0 1-.076.075h-.975a.075.075 0 0 1-.076-.075v-.95c0-.04.03-.071.068-.075m1.625 0h.983c.042 0 .076.033.076.074v.951a.074.074 0 0 1-.076.075h-.975a.074.074 0 0 1-.076-.075v-.95c0-.04.03-.071.068-.075" style="fill:#297aa3;fill-opacity:1"/></svg>