<svg xmlns="http://www.w3.org/2000/svg" viewBox="0 0 24 24"><path d="M6 2c-1.11 0-2 .89-2 2v16a2 2 0 0 0 2 2h12a2 2 0 0 0 2-2V8l-6-6zm7 1.5L18.5 9H13zm-.178 6.44v1.019l-.748.084c-2.088.308-3.855 2.063-3.998 4.103-.083 1.27.25 2.41 1.104 3.395.332.415.71.77 1.185.996.143.06.31.084.44.108-1.317-.772-2.077-1.935-2.338-3.418a3.8 3.8 0 0 1 .594-2.811c1.4-2.171 3.856-2.54 5.54-1.816-.142.308-.273.606-.415.879-.333-.06-.664-.166-.997-.166-.96-.06-1.815.165-2.539.853-1.815 1.685-1.353 4.271.414 5.41a4.7 4.7 0 0 0 1.817.795c.166.06.332 0 .521-.023-.023-.024-.058-.024-.082-.024-.83-.166-1.601-.44-2.254-1.021-.652-.582-1.15-1.294-1.234-2.207-.095-1.282.414-2.324 1.518-2.989.96-.605 1.981-.605 3.002-.107.58.273.996.712 1.316 1.27-.308.166-.58.308-.854.439-.249-.25-.463-.523-.748-.69-1.293-.877-3.095-.058-3.25 1.567-.059.795.273 1.401.83 1.959.665.605 1.46.829 2.338.935.855.107 1.709.084 2.563-.023.166-.024.25.084.308.227l.01-.026h.002v.002c-.06.25-.226.414-.416.604-2.539 2.645-6.917 2.148-8.744-1.02-.498-.854-.77-1.732-.746-2.728.06-1.222.45-2.303 1.22-3.264.914-1.163 2.066-1.933 3.561-2.17.356-.06.712-.083 1.08-.143" style="fill:#8585ad;fill-opacity:1"/></svg>