<svg xmlns="http://www.w3.org/2000/svg" viewBox="0 0 24 24"><path d="M6 2c-1.11 0-2 .89-2 2v16a2 2 0 0 0 2 2h12a2 2 0 0 0 2-2V8l-6-6zm7 1.5L18.5 9H13zm2.658 7.352a1.3 1.3 0 0 1 .397.074c.243.082.464.212.664.347.399.272.713.579.713.579l.273.27-.535.55-.275-.268s-.278-.27-.608-.494a2.2 2.2 0 0 0-.476-.256.4.4 0 0 0-.198-.027h-.004c-.186.104-.236.245-.236.574 0 .33.098.783.205 1.252.107.47.224.953.219 1.418s-.188.977-.664 1.217c-.279.14-.578.185-.848.13s-.5-.194-.697-.364c-.396-.34-.706-.812-1.043-1.266-.337-.455-.694-.89-1.094-1.158-.397-.267-.818-.39-1.42-.256-.257.071-.5.282-.703.646-.205.367-.356.872-.428 1.422-.013.104.014.216.006.322.432.064.899.07 1.281.196.766.25 1.42.631 1.803 1.222.4.619.54 1.192.426 1.684s-.488.848-.922 1.016c-.868.336-2.036.064-2.72-.875l-.01-.012-.006-.012c-.442-.712-.587-1.636-.61-2.564-.192-.015-.344-.076-.54-.08l-.895-.02-.385-.01.016-.77.385.01.894.02c.183.004.337.066.518.078.008-.1-.017-.205-.004-.304.081-.625.25-1.212.52-1.696s.659-.881 1.179-1.021l.006-.002h.008a2.55 2.55 0 0 1 2.03.367c.536.36.935.867 1.284 1.338.35.47.658.91.926 1.14.134.116.25.176.348.196s.192.013.347-.065c.192-.096.239-.217.242-.537s-.092-.77-.199-1.238c-.107-.469-.225-.957-.224-1.426 0-.468.166-.984.632-1.244a.83.83 0 0 1 .422-.103m-6.74 5.484c.043.768.175 1.513.486 2.023.474.64 1.317.798 1.813.606.25-.097.396-.248.449-.475s.007-.584-.32-1.09c-.241-.372-.733-.692-1.399-.91-.293-.096-.686-.097-1.029-.154" style="fill:#fcc400;fill-opacity:1"/></svg>