<svg xmlns="http://www.w3.org/2000/svg" viewBox="0 0 24 24"><path d="M6 2c-1.11 0-2 .89-2 2v16a2 2 0 0 0 2 2h12a2 2 0 0 0 2-2V8l-6-6zm7 1.5L18.5 9H13zm-2.902 6.701c.29.005.572.04.836.176.616.302.795 1.011.742 1.643-.043.69.158 1.469-.322 2.05-.423.574-1.16.524-1.791.516-.66.067-1.389-.206-1.641-.865-.196-.604-.08-1.25-.111-1.875-.111-.827.56-1.669 1.418-1.64.284.015.58-.01.869-.005m3.861 0c.359.01.714.088.797.52.03 1.023.005 2.05.014 3.074.184.808-1.128 1.113-1.276.277-.03-.825-.005-1.654-.014-2.48-.547-.223-.776-1.353.13-1.387.11-.002.23-.007.349-.004m-4.73 1.293-.051.01-.041.027c-.086.342-.014.725-.037 1.082.047.22-.117.58.129.686.37-.023.765.046 1.12-.04.086-.329.014-.697.038-1.042-.037-.232.083-.532-.078-.713-.359-.024-.72-.003-1.08-.01m.607 4.377c.359.01.714.088.797.52.03 1.023.003 2.05.012 3.074.184.808-1.128 1.113-1.276.277-.03-.825-.003-1.654-.012-2.48-.547-.223-.776-1.353.13-1.387.11-.002.23-.007.349-.004m4.385 0c.29.005.574.04.838.176.616.302.795 1.011.742 1.642-.043.691.156 1.47-.324 2.051-.423.574-1.16.524-1.791.516-.66.067-1.389-.206-1.641-.865-.196-.604-.08-1.25-.111-1.875-.111-.827.56-1.669 1.418-1.641.284.016.58-.009.869-.004m-.87 1.293-.05.01-.041.027c-.086.342-.014.725-.037 1.082.047.22-.117.58.129.686.37-.023.765.046 1.12-.04.086-.329.016-.697.04-1.042-.037-.232.081-.532-.08-.713-.359-.024-.72-.003-1.08-.01" style="fill:gray;fill-opacity:1"/></svg>