<svg xmlns="http://www.w3.org/2000/svg" viewBox="0 0 24 24"><path d="M6 2c-1.11 0-2 .89-2 2v16a2 2 0 0 0 2 2h12a2 2 0 0 0 2-2V8l-6-6zm7 1.5L18.5 9H13zm-.912 6.844c1.753 0 3.25.578 3.871 1.394.146.193.245.398.283.616a4.18 2.229 0 0 1 .024.22 4.18 2.229 0 0 1-.018.19q-.01.05-.023.097a4.18 2.229 0 0 1-.034.123c-.008.024-.021.047-.03.07a4.18 2.229 0 0 1-.07.15l-.019.032a4.18 2.229 0 0 1-.113.172 4.18 2.229 0 0 0-.002.002 4.18 2.229 0 0 1-3.871 1.395 4.18 2.229 0 0 1-3.871-1.395 4.18 2.229 0 0 1-.133-.201A4.18 2.229 0 0 1 7.984 13a4.18 2.229 0 0 1-.056-.209 1.2 1.2 0 0 1-.022-.217 4.18 2.229 0 0 1 .02-.207c.008-.049.025-.096.039-.144a4.18 2.229 0 0 1 .017-.067q.039-.105.094-.207a2 2 0 0 1 .139-.21c.62-.817 2.118-1.393 3.87-1.393zm-3.873 4.181a4.18 2.229 0 0 0 3.87 1.393 4.18 2.229 0 0 0 3.872-1.393 4.18 2.229 0 0 1 .309.836 4.18 2.229 0 0 1-4.18 2.229 4.18 2.229 0 0 1-4.18-2.229 4.18 2.229 0 0 1 .309-.836m0 2.786a4.18 2.229 0 0 0 3.87 1.394 4.18 2.229 0 0 0 3.872-1.394 4.18 2.229 0 0 1 .309.835 4.18 2.229 0 0 1-4.18 2.229 4.18 2.229 0 0 1-4.18-2.229 4.18 2.229 0 0 1 .309-.835" style="fill:#ca68ca;fill-opacity:1"/></svg>