<svg xmlns="http://www.w3.org/2000/svg" width="512" height="512"><path d="M456 456H56V56h400Zm-82.492-230.458V194.52c-5.11-2.275-34.368-10.645-57.483-1.824-33.297 12.704-32.1 50.978-19.466 65.999 16.371 19.462 57.096 26.719 50.432 45.822-3.451 9.892-19.561 11.614-33.764 8.293C300 309.716 288.5 301.882 288.5 301.882v32.848s11.367 6.337 25.319 7.845c17.885 1.932 40.304-1.716 51.535-11.7 19.992-17.77 23.062-57.138-14.824-75.418-31.528-15.21-31.009-19.552-30.788-27.355.297-10.45 22.238-16.882 53.766-2.56M203.492 138.48c26.232.913 64.783 13.003 64.783 64.555s-47.167 68.469-90.205 64.783v72.995h-32.062V139.164s31.25-1.596 57.483-.684m8.326 97.403c13.825-5.045 22.811-15.89 22.811-32.735 0-17.86-9.144-29.954-23.13-33.37-15.146-3.701-33.43-1.52-33.43-1.52v70.347s25.31.357 33.75-2.722" style="clip-rule:evenodd;fill:#1e9cef;fill-rule:evenodd;stroke-width:.78125"/></svg>