<svg xmlns="http://www.w3.org/2000/svg" width="512" height="512"><path d="M441.055 441.055c-38.819 38.819-101.757 38.819-140.576 0L70.945 211.52c-38.819-38.82-38.819-101.757 0-140.576s101.757-38.819 140.576 0L441.055 300.48c38.819 38.82 38.819 101.757 0 140.576m-213.566-291.82-78.255 78.255L282.18 360.436l78.255-78.255Zm-113.01 43.505c-4.659 4.658-4.659 12.212 0 16.87 4.659 4.66 12.212 4.66 16.871 0 4.659-4.658 4.659-12.212 0-16.87-4.659-4.66-12.212-4.66-16.87 0m39.514-39.514c-4.659 4.658-4.659 12.212 0 16.87 4.659 4.66 12.212 4.66 16.871 0 4.659-4.658 4.659-12.212 0-16.87-4.659-4.66-12.212-4.66-16.87 0m39.514-39.514c-4.659 4.658-4.659 12.212 0 16.87 4.659 4.66 12.212 4.66 16.871 0 4.659-4.658 4.659-12.212 0-16.87-4.659-4.66-12.212-4.66-16.87 0m-47.896-7.185c-4.658 4.659-4.658 12.212 0 16.871 4.66 4.659 12.212 4.659 16.871 0s4.659-12.212 0-16.87c-4.659-4.66-12.212-4.66-16.87 0m-38.316 38.317c-4.66 4.659-4.66 12.212 0 16.87 4.658 4.66 12.212 4.66 16.87 0 4.66-4.658 4.66-12.211 0-16.87-4.658-4.659-12.212-4.659-16.87 0M96.518 95.75c-4.659 4.658-4.659 12.212 0 16.87 4.659 4.66 12.212 4.66 16.871 0 4.659-4.658 4.659-12.212 0-16.87-4.659-4.66-12.212-4.66-16.87 0m300.654 221.625c4.658-4.659 4.658-12.212 0-16.87-4.66-4.66-12.212-4.66-16.871 0-4.659 4.658-4.659 12.211 0 16.87s12.212 4.659 16.87 0m-39.514 39.514c4.658-4.659 4.658-12.212 0-16.87-4.66-4.66-12.213-4.66-16.871 0-4.66 4.658-4.66 12.211 0 16.87 4.658 4.659 12.212 4.659 16.87 0m-39.514 39.514c4.658-4.659 4.658-12.212 0-16.87-4.66-4.66-12.213-4.66-16.871 0-4.66 4.658-4.66 12.211 0 16.87 4.658 4.659 12.212 4.659 16.87 0m47.895 7.185c4.66-4.66 4.66-12.213 0-16.871-4.658-4.66-12.212-4.66-16.87 0-4.66 4.658-4.66 12.212 0 16.87 4.658 4.66 12.212 4.66 16.87 0m38.317-38.317c4.659-4.659 4.659-12.212 0-16.871s-12.212-4.659-16.87 0c-4.66 4.659-4.66 12.212 0 16.87 4.658 4.66 12.211 4.66 16.87 0m10.777 49.093c4.658-4.659 4.658-12.212 0-16.87-4.66-4.66-12.213-4.66-16.871 0-4.66 4.658-4.66 12.211 0 16.87 4.658 4.659 12.212 4.659 16.87 0m-10.604-166.318 36.526-36.526c38.819-38.819 38.819-101.757 0-140.576s-101.757-38.819-140.576 0l-36.526 36.526zM107.47 263.953 70.945 300.48c-38.819 38.819-38.819 101.757 0 140.576s101.757 38.819 140.576 0l36.526-36.526z" style="stroke-width:.836598;fill:#6877cd;fill-opacity:1"/></svg>